<svg xmlns="http://www.w3.org/2000/svg" viewBox="0 0 71.53 570.86"><defs><style>.cls-1{fill:#dd991a;}</style></defs><title>streep</title><g id="Layer_2" data-name="Layer 2"><g id="Layer_1-2" data-name="Layer 1"><path class="cls-1" d="M71.51,4.78A15.35,15.35,0,0,0,70.71,0Q69,1.48,67.39,3c0-.32-.1-.65-.14-1-.36.31-.69.63-1,.94-.13-.81-.31-1.62-.45-2.42C64.41,1.75,63.1,3,61.82,4.22c0-.59-.09-1.17-.13-1.76A76.63,76.63,0,0,0,56.06,7.8L56,7.85c.05-.83.11-1.66.16-2.48-1.27,1.07-2.48,2.2-3.66,3.36.05-.64.1-1.28.16-1.92a57.41,57.41,0,0,0-4.9,4.59L46,13.17c.19-1.15.43-2.31.63-3.45a46.16,46.16,0,0,0-4.4,4.1l-.05.05-.5.42c.25-.68.5-1.35.71-2a34.38,34.38,0,0,0-3,2.68c.37-1,.76-2,1.07-3a34.37,34.37,0,0,0-3.34,3L38,13a27.43,27.43,0,0,0-3.43,3.12C33.31,17.4,32,18.69,30.74,20l.07-.14L33,15.38l-.23.19.2-.4a20.86,20.86,0,0,0-3,2.69c-1.29,1.27-2.57,2.56-3.86,3.83L27,20l.28-.56h0L28,18c-.34.23-.66.49-1,.76l.69-1.4a15.79,15.79,0,0,0-1.59,1.29l.2-.41a11,11,0,0,0-2.21,1.9c-.84.82-1.66,1.65-2.5,2.47l1.9-3.85a9.25,9.25,0,0,0-2,1.73q-3.6,3.5-7.15,7.06T7.21,34.66a9.25,9.25,0,0,0-1.73,2q-.7,1.49-1.38,3-1,2.09-1.89,4.19L.55,47.69.77,49,0,51,.24,53.1.69,57a83.32,83.32,0,0,1,.24,9.15c.08,19,0,38.08,0,57.13Q1,211.67,1,300.1,1,428.5.9,556.89c.41-.31.79-.64,1.16-1q0,.79,0,1.58c.2-.14.37-.3.56-.44q0,.46,0,.93c.35-.29.68-.6,1-.91v.22c.19-.15.36-.32.54-.48q0,1.23,0,2.46l.29-.27q0,.67,0,1.35c.56-.49,1.09-1,1.62-1.52q0,1.93,0,3.86c.46-.42.9-.86,1.34-1.29q0,1.56,0,3.12l.29-.28q0,1,0,2.1c.56-.52,1.1-1.07,1.64-1.62v.12l.17-.17q0,1.35,0,2.7l.24-.24q0,1.12,0,2.23c.82-.77,1.6-1.56,2.39-2.36q0,.41,0,.81l.49-.48q0,1.76,0,3.53,3.23-3.05,6.17-6.38,11.39-12.26,22.72-24.57t22.63-24.65q3.08-3.21,5.85-6.67c.57-7.26.57-14.61.66-21.89.1-8.16-.22-16.3-.62-24.44-.26-5.3-.05-10.6,0-15.9q.1-8.74.17-17.48c.47-58.66.46-117.32.44-176q0-46.11-.13-92.22c-.08-27.19-.36-54.38-.44-81.57,0-5.91,0-11.81.32-17.7.26-5.21.45-10.36.38-15.57-.12-9-.59-18-.23-27C70.75,14.14,71.13,9.46,71.51,4.78Z"/></g></g></svg>